<svg xmlns="http://www.w3.org/2000/svg" width="1200" height="630" viewBox="0 0 1200 630" role="img" aria-label="Who killed the most AI products"><title>Who killed the most AI products</title><rect width="1200" height="630" rx="18" fill="#09090b"/><rect x="1" y="1" width="1198" height="628" rx="17" fill="none" stroke="#27272a" stroke-width="2"/><rect x="0" y="0" width="1200" height="10" rx="5" fill="#ef4444"/><text x="60" y="75" font-family="-apple-system, BlinkMacSystemFont, 'Segoe UI', Roboto, Helvetica, Arial, sans-serif" font-size="40" font-weight="800" fill="#fafafa">Who killed the most AI products</text><text x="60" y="115" font-family="-apple-system, BlinkMacSystemFont, 'Segoe UI', Roboto, Helvetica, Arial, sans-serif" font-size="24" fill="#a1a1aa">Shut down by each company (Gemini counted as Google, GitHub as Microsoft, AWS as Amazon)</text><text x="60" y="179.8" font-family="-apple-system, BlinkMacSystemFont, 'Segoe UI', Roboto, Helvetica, Arial, sans-serif" font-size="24" fill="#fafafa">OpenAI</text><rect x="390" y="164.4" width="660" height="20.2" rx="8" fill="#1c1c1f"/><rect x="390" y="164.4" width="660.0" height="20.2" rx="8" fill="#ef4444"/><text x="1140" y="179.8" text-anchor="end" font-family="ui-monospace, 'SF Mono', Menlo, Consolas, monospace" font-size="24" font-weight="800" fill="#fafafa">29</text><text x="60" y="227.8" font-family="-apple-system, BlinkMacSystemFont, 'Segoe UI', Roboto, Helvetica, Arial, sans-serif" font-size="24" fill="#fafafa">Google</text><rect x="390" y="212.4" width="660" height="20.2" rx="8" fill="#1c1c1f"/><rect x="390" y="212.4" width="637.2" height="20.2" rx="8" fill="#ef4444"/><text x="1140" y="227.8" text-anchor="end" font-family="ui-monospace, 'SF Mono', Menlo, Consolas, monospace" font-size="24" font-weight="800" fill="#fafafa">28</text><text x="60" y="275.8" font-family="-apple-system, BlinkMacSystemFont, 'Segoe UI', Roboto, Helvetica, Arial, sans-serif" font-size="24" fill="#fafafa">Microsoft</text><rect x="390" y="260.4" width="660" height="20.2" rx="8" fill="#1c1c1f"/><rect x="390" y="260.4" width="409.7" height="20.2" rx="8" fill="#ef4444"/><text x="1140" y="275.8" text-anchor="end" font-family="ui-monospace, 'SF Mono', Menlo, Consolas, monospace" font-size="24" font-weight="800" fill="#fafafa">18</text><text x="60" y="323.8" font-family="-apple-system, BlinkMacSystemFont, 'Segoe UI', Roboto, Helvetica, Arial, sans-serif" font-size="24" fill="#fafafa">Anthropic</text><rect x="390" y="308.4" width="660" height="20.2" rx="8" fill="#1c1c1f"/><rect x="390" y="308.4" width="227.6" height="20.2" rx="8" fill="#ef4444"/><text x="1140" y="323.8" text-anchor="end" font-family="ui-monospace, 'SF Mono', Menlo, Consolas, monospace" font-size="24" font-weight="800" fill="#fafafa">10</text><text x="60" y="371.8" font-family="-apple-system, BlinkMacSystemFont, 'Segoe UI', Roboto, Helvetica, Arial, sans-serif" font-size="24" fill="#fafafa">Amazon</text><rect x="390" y="356.4" width="660" height="20.2" rx="8" fill="#1c1c1f"/><rect x="390" y="356.4" width="182.1" height="20.2" rx="8" fill="#ef4444"/><text x="1140" y="371.8" text-anchor="end" font-family="ui-monospace, 'SF Mono', Menlo, Consolas, monospace" font-size="24" font-weight="800" fill="#fafafa">8</text><text x="60" y="419.8" font-family="-apple-system, BlinkMacSystemFont, 'Segoe UI', Roboto, Helvetica, Arial, sans-serif" font-size="24" fill="#fafafa">Meta</text><rect x="390" y="404.4" width="660" height="20.2" rx="8" fill="#1c1c1f"/><rect x="390" y="404.4" width="159.3" height="20.2" rx="8" fill="#ef4444"/><text x="1140" y="419.8" text-anchor="end" font-family="ui-monospace, 'SF Mono', Menlo, Consolas, monospace" font-size="24" font-weight="800" fill="#fafafa">7</text><text x="60" y="467.8" font-family="-apple-system, BlinkMacSystemFont, 'Segoe UI', Roboto, Helvetica, Arial, sans-serif" font-size="24" fill="#fafafa">Mistral</text><rect x="390" y="452.4" width="660" height="20.2" rx="8" fill="#1c1c1f"/><rect x="390" y="452.4" width="91.0" height="20.2" rx="8" fill="#ef4444"/><text x="1140" y="467.8" text-anchor="end" font-family="ui-monospace, 'SF Mono', Menlo, Consolas, monospace" font-size="24" font-weight="800" fill="#fafafa">4</text><text x="60" y="515.8" font-family="-apple-system, BlinkMacSystemFont, 'Segoe UI', Roboto, Helvetica, Arial, sans-serif" font-size="24" fill="#fafafa">Adobe</text><rect x="390" y="500.4" width="660" height="20.2" rx="8" fill="#1c1c1f"/><rect x="390" y="500.4" width="45.5" height="20.2" rx="8" fill="#ef4444"/><text x="1140" y="515.8" text-anchor="end" font-family="ui-monospace, 'SF Mono', Menlo, Consolas, monospace" font-size="24" font-weight="800" fill="#fafafa">2</text><text x="40" y="600" font-family="-apple-system, BlinkMacSystemFont, 'Segoe UI', Roboto, Helvetica, Arial, sans-serif" font-size="20" font-weight="700" fill="#fafafa">💀 Killed by <tspan fill="#ef4444">AI</tspan></text><text x="1160" y="600" text-anchor="end" font-family="-apple-system, BlinkMacSystemFont, 'Segoe UI', Roboto, Helvetica, Arial, sans-serif" font-size="18" fill="#71717a">killedbyai.net</text></svg>